<?xml version="1.0" encoding="UTF-8"?>
<svg width="8px" height="8px" viewBox="0 0 8 8" version="1.1" xmlns="http://www.w3.org/2000/svg" xmlns:xlink="http://www.w3.org/1999/xlink">
    <!-- Generator: sketchtool 51.2 (57519) - http://www.bohemiancoding.com/sketch -->
    <title>8AB2B379-D396-43E1-99F9-C7DF666371AD</title>
    <desc>Created with sketchtool.</desc>
    <defs>
        <path d="M7.21218305,6 L9.1775201,4.03466296 C9.51225521,3.69992785 9.51225521,3.15721501 9.1775201,2.8224799 C8.84278499,2.48774479 8.30007215,2.48774479 7.96533704,2.8224799 L6,4.78781695 L4.03466296,2.8224799 C3.69992785,2.48774479 3.15721501,2.48774479 2.8224799,2.8224799 C2.48774479,3.15721501 2.48774479,3.69992785 2.8224799,4.03466296 L4.78781695,6 L2.8224799,7.96533704 C2.48774479,8.30007215 2.48774479,8.84278499 2.8224799,9.1775201 C3.15721501,9.51225521 3.69992785,9.51225521 4.03466296,9.1775201 L6,7.21218305 L7.96533704,9.1775201 C8.30007215,9.51225521 8.84278499,9.51225521 9.1775201,9.1775201 C9.51225521,8.84278499 9.51225521,8.30007215 9.1775201,7.96533704 L7.21218305,6 Z" id="path-1"></path>
    </defs>
    <g id="Page-1" stroke="none" stroke-width="1" fill="none" fill-rule="evenodd">
        <g id="01-Listado" transform="translate(-1136.000000, -93.000000)">
            <g id="search_bar_active" transform="translate(860.000000, 80.000000)">
                <g id="ico-/-14-/-close" transform="translate(274.000000, 11.000000)">
                    <rect id="Background" x="0" y="0" width="12" height="12"></rect>
                    <mask id="mask-2" fill="white">
                        <use xlink:href="#path-1"></use>
                    </mask>
                    <use id="Combined-Shape" fill="#9698A1" fill-rule="nonzero" xlink:href="#path-1"></use>
                    <g id="↳-🎨Color" mask="url(#mask-2)">
                        <rect id="Background" x="0" y="0" width="12" height="12"></rect>
                        <rect id="Rectangle-2" fill="#152935" x="0" y="0" width="12" height="12"></rect>
                    </g>
                </g>
            </g>
        </g>
    </g>
</svg>